<svg width="26" height="25" viewBox="0 0 26 25" fill="none" xmlns="http://www.w3.org/2000/svg">
<g filter="url(#filter0_bi)">
<path d="M10.1909 4.4445C10.2546 4.57408 10.2967 4.71285 10.3155 4.85551L10.6635 10.0304L10.8363 12.6314C10.8381 12.8989 10.88 13.1647 10.9608 13.4201C11.1695 13.9158 11.6715 14.2308 12.2176 14.2088L20.5392 13.6645C20.8995 13.6586 21.2475 13.7934 21.5066 14.0392C21.7224 14.244 21.8618 14.512 21.9057 14.8003L21.9204 14.9753C21.5761 19.7437 18.0739 23.7209 13.3154 24.7476C8.55694 25.7742 3.67733 23.6055 1.32589 19.4187C0.647984 18.2024 0.224563 16.8654 0.0804774 15.4863C0.0202857 15.0781 -0.00621814 14.6657 0.00122403 14.2533C-0.00620744 9.141 3.63434 4.72129 8.73042 3.6558C9.34376 3.5603 9.94504 3.88499 10.1909 4.4445Z" fill="#1D1D1D"/>
<path d="M10.1909 4.4445C10.2546 4.57408 10.2967 4.71285 10.3155 4.85551L10.6635 10.0304L10.8363 12.6314C10.8381 12.8989 10.88 13.1647 10.9608 13.4201C11.1695 13.9158 11.6715 14.2308 12.2176 14.2088L20.5392 13.6645C20.8995 13.6586 21.2475 13.7934 21.5066 14.0392C21.7224 14.244 21.8618 14.512 21.9057 14.8003L21.9204 14.9753C21.5761 19.7437 18.0739 23.7209 13.3154 24.7476C8.55694 25.7742 3.67733 23.6055 1.32589 19.4187C0.647984 18.2024 0.224563 16.8654 0.0804774 15.4863C0.0202857 15.0781 -0.00621814 14.6657 0.00122403 14.2533C-0.00620744 9.141 3.63434 4.72129 8.73042 3.6558C9.34376 3.5603 9.94504 3.88499 10.1909 4.4445Z" fill="url(#paint0_linear)"/>
<path d="M10.1909 4.4445C10.2546 4.57408 10.2967 4.71285 10.3155 4.85551L10.6635 10.0304L10.8363 12.6314C10.8381 12.8989 10.88 13.1647 10.9608 13.4201C11.1695 13.9158 11.6715 14.2308 12.2176 14.2088L20.5392 13.6645C20.8995 13.6586 21.2475 13.7934 21.5066 14.0392C21.7224 14.244 21.8618 14.512 21.9057 14.8003L21.9204 14.9753C21.5761 19.7437 18.0739 23.7209 13.3154 24.7476C8.55694 25.7742 3.67733 23.6055 1.32589 19.4187C0.647984 18.2024 0.224563 16.8654 0.0804774 15.4863C0.0202857 15.0781 -0.00621814 14.6657 0.00122403 14.2533C-0.00620744 9.141 3.63434 4.72129 8.73042 3.6558C9.34376 3.5603 9.94504 3.88499 10.1909 4.4445Z" stroke="url(#paint1_linear)" stroke-opacity="0.75"/>
</g>
<g opacity="0.4" filter="url(#filter1_bi)">
<path d="M13.9818 0.00102398C19.6816 0.146033 24.4721 4.24474 25.3942 9.76536L25.3854 9.8061L25.3603 9.86534L25.3638 10.028C25.3507 10.2434 25.2675 10.4507 25.1242 10.6181C24.9749 10.7925 24.7709 10.9113 24.5462 10.9574L24.4092 10.9762L14.8083 11.5983C14.4889 11.6298 14.1709 11.5268 13.9334 11.3149C13.7355 11.1384 13.609 10.9001 13.5732 10.6433L12.9288 1.05633C12.9176 1.02391 12.9176 0.988769 12.9288 0.956352C12.9376 0.69209 13.0539 0.4423 13.2518 0.262787C13.4497 0.0832747 13.7126 -0.0110005 13.9818 0.00102398Z" fill="#1D1D1D"/>
<path d="M13.9818 0.00102398C19.6816 0.146033 24.4721 4.24474 25.3942 9.76536L25.3854 9.8061L25.3603 9.86534L25.3638 10.028C25.3507 10.2434 25.2675 10.4507 25.1242 10.6181C24.9749 10.7925 24.7709 10.9113 24.5462 10.9574L24.4092 10.9762L14.8083 11.5983C14.4889 11.6298 14.1709 11.5268 13.9334 11.3149C13.7355 11.1384 13.609 10.9001 13.5732 10.6433L12.9288 1.05633C12.9176 1.02391 12.9176 0.988769 12.9288 0.956352C12.9376 0.69209 13.0539 0.4423 13.2518 0.262787C13.4497 0.0832747 13.7126 -0.0110005 13.9818 0.00102398Z" fill="url(#paint2_linear)"/>
<path d="M13.9818 0.00102398C19.6816 0.146033 24.4721 4.24474 25.3942 9.76536L25.3854 9.8061L25.3603 9.86534L25.3638 10.028C25.3507 10.2434 25.2675 10.4507 25.1242 10.6181C24.9749 10.7925 24.7709 10.9113 24.5462 10.9574L24.4092 10.9762L14.8083 11.5983C14.4889 11.6298 14.1709 11.5268 13.9334 11.3149C13.7355 11.1384 13.609 10.9001 13.5732 10.6433L12.9288 1.05633C12.9176 1.02391 12.9176 0.988769 12.9288 0.956352C12.9376 0.69209 13.0539 0.4423 13.2518 0.262787C13.4497 0.0832747 13.7126 -0.0110005 13.9818 0.00102398Z" stroke="url(#paint3_linear)" stroke-opacity="0.75"/>
</g>
<defs>
<filter id="filter0_bi" x="-3.75" y="-0.110764" width="29.4204" height="28.8608" filterUnits="userSpaceOnUse" color-interpolation-filters="sRGB">
<feFlood flood-opacity="0" result="BackgroundImageFix"/>
<feGaussianBlur in="BackgroundImage" stdDeviation="1.875"/>
<feComposite in2="SourceAlpha" operator="in" result="effect1_backgroundBlur"/>
<feBlend mode="normal" in="SourceGraphic" in2="effect1_backgroundBlur" result="shape"/>
<feColorMatrix in="SourceAlpha" type="matrix" values="0 0 0 0 0 0 0 0 0 0 0 0 0 0 0 0 0 0 127 0" result="hardAlpha"/>
<feOffset dy="0.625"/>
<feGaussianBlur stdDeviation="1.25"/>
<feComposite in2="hardAlpha" operator="arithmetic" k2="-1" k3="1"/>
<feColorMatrix type="matrix" values="0 0 0 0 1 0 0 0 0 1 0 0 0 0 1 0 0 0 0.15 0"/>
<feBlend mode="normal" in2="shape" result="effect2_innerShadow"/>
</filter>
<filter id="filter1_bi" x="9.17041" y="-3.75" width="19.9738" height="19.1038" filterUnits="userSpaceOnUse" color-interpolation-filters="sRGB">
<feFlood flood-opacity="0" result="BackgroundImageFix"/>
<feGaussianBlur in="BackgroundImage" stdDeviation="1.875"/>
<feComposite in2="SourceAlpha" operator="in" result="effect1_backgroundBlur"/>
<feBlend mode="normal" in="SourceGraphic" in2="effect1_backgroundBlur" result="shape"/>
<feColorMatrix in="SourceAlpha" type="matrix" values="0 0 0 0 0 0 0 0 0 0 0 0 0 0 0 0 0 0 127 0" result="hardAlpha"/>
<feOffset dy="0.625"/>
<feGaussianBlur stdDeviation="1.25"/>
<feComposite in2="hardAlpha" operator="arithmetic" k2="-1" k3="1"/>
<feColorMatrix type="matrix" values="0 0 0 0 1 0 0 0 0 1 0 0 0 0 1 0 0 0 0.15 0"/>
<feBlend mode="normal" in2="shape" result="effect2_innerShadow"/>
</filter>
<linearGradient id="paint0_linear" x1="0.913351" y1="7.91141" x2="24.7845" y2="11.3137" gradientUnits="userSpaceOnUse">
<stop stop-color="#19FADD"/>
<stop offset="1" stop-color="#68E4FF"/>
</linearGradient>
<linearGradient id="paint1_linear" x1="0.685014" y1="4.61018" x2="21.9204" y2="4.61018" gradientUnits="userSpaceOnUse">
<stop stop-color="#9443F7"/>
<stop offset="1" stop-color="#7FD6FA"/>
</linearGradient>
<linearGradient id="paint2_linear" x1="13.4402" y1="2.32077" x2="26.9978" y2="4.34495" gradientUnits="userSpaceOnUse">
<stop stop-color="#19FADD"/>
<stop offset="1" stop-color="#68E4FF"/>
</linearGradient>
<linearGradient id="paint3_linear" x1="13.3102" y1="0.527447" x2="25.3942" y2="0.527447" gradientUnits="userSpaceOnUse">
<stop stop-color="#9443F7"/>
<stop offset="1" stop-color="#7FD6FA"/>
</linearGradient>
</defs>
</svg>
