<svg width="27" height="26" viewBox="0 0 27 26" fill="none" xmlns="http://www.w3.org/2000/svg">
<path d="M13.4902 19.8217L20.9834 16.2988L13.497 26L12.3722 24.5424V19.2945L13.4902 19.8217Z" fill="#708299"/>
<path d="M13.4971 0L22.0957 14.8573H4.89832L13.4971 0Z" fill="#708299"/>
<path d="M4.89828 14.8793L13.4971 0V14.8793H4.89828Z" fill="#68788E"/>
<path d="M16.0986 8.25177H14.4111V9.87677H16.0986V8.25177Z" fill="white"/>
<path d="M13.4974 10.8225L13.5312 10.8071L22.0952 14.8696H22.0876L13.5236 18.9321L13.4898 18.9166L12.3727 18.3901V11.353L13.4974 10.8225Z" fill="#3C3C47"/>
<path d="M16.0986 5.1781H14.4111V6.8031H16.0986V5.1781Z" fill="white"/>
<path d="M13.4903 19.8217L13.4971 26L6.00529 16.2922L13.4903 19.8217Z" fill="#68788E"/>
<path d="M4.91425 14.8696L13.497 10.8225L13.5308 10.8071L13.5231 18.9321L13.4894 18.9166L4.90663 14.8696H4.91425Z" fill="#31313B"/>
</svg>
