<svg width="70" height="74" viewBox="0 0 70 74" fill="none" xmlns="http://www.w3.org/2000/svg">
<circle cx="30.3158" cy="39.0108" r="14.7972" transform="rotate(-30 30.3158 39.0108)" fill="#C4C4C4"/>
<circle cx="30.3158" cy="39.0108" r="14.7972" transform="rotate(-30 30.3158 39.0108)" fill="url(#paint0_linear)"/>
<g filter="url(#filter0_bi)">
<path fill-rule="evenodd" clip-rule="evenodd" d="M29.1287 27.7877C28.6079 28.0884 28.425 28.7467 28.7203 29.2582L34.4147 39.1212L31.1726 33.5058C31.1726 33.5058 30.2408 33.4546 29.1703 33.6793C28.3709 33.8471 27.4703 34.2397 26.9522 34.5388C23.2098 36.6995 21.8896 41.4528 24.0113 45.1276C26.1329 48.8024 30.9095 50.0358 34.6519 47.8751C38.3943 45.7145 39.5786 41.0395 37.457 37.3647L31.7626 27.5017C31.4673 26.9903 30.8058 26.8194 30.2849 27.1202L29.1287 27.7877ZM28.696 37.4985C30.7788 36.296 33.2204 37.0839 34.4011 39.129C34.9522 40.0836 35.1288 41.1394 34.9485 42.1159C34.7427 43.2316 34.0712 44.2438 32.9606 44.885C30.8779 46.0875 28.2479 45.4084 27.0671 43.3633C25.8864 41.3182 26.6132 38.7009 28.696 37.4985Z" fill="white" fill-opacity="0.1"/>
<path fill-rule="evenodd" clip-rule="evenodd" d="M26.9509 34.5391C23.2085 36.6997 21.8884 41.4531 24.01 45.1279C26.1316 48.8026 30.9082 50.036 34.6506 47.8754C38.393 45.7147 39.5774 41.0397 37.4557 37.365L34.4134 39.1214L31.1714 33.506C31.0322 33.4993 30.9629 33.4914 30.7527 33.4973C29.4686 33.5333 28.1629 33.8393 26.9509 34.5391ZM28.6947 37.4987C30.7775 36.2962 33.2191 37.0842 34.3998 39.1293C34.951 40.0838 35.1276 41.1397 34.9472 42.1161C34.7414 43.2319 34.07 44.2441 32.9594 44.8853C30.8766 46.0877 28.2466 45.4087 27.0658 43.3636C25.8851 41.3184 26.612 38.7012 28.6947 37.4987Z" fill="url(#paint1_radial)"/>
</g>
<circle cx="40.1809" cy="53.3595" r="14.7972" transform="rotate(15 40.1809 53.3595)" fill="#C4C4C4"/>
<circle cx="40.1809" cy="53.3595" r="14.7972" transform="rotate(15 40.1809 53.3595)" fill="url(#paint2_linear)"/>
<g filter="url(#filter1_bi)">
<path fill-rule="evenodd" clip-rule="evenodd" d="M47.276 44.5837C46.695 44.428 46.1002 44.7642 45.9473 45.3347L42.9997 56.3354L44.6779 50.0723C44.6779 50.0723 44.0552 49.3771 43.1394 48.7791C42.4555 48.3325 41.5411 47.9733 40.9631 47.8184C36.789 46.7 32.4945 49.1276 31.3962 53.2263C30.298 57.3249 32.8034 61.5747 36.9775 62.6931C41.1516 63.8116 45.2947 61.3433 46.393 57.2446L49.3406 46.2439C49.4935 45.6734 49.1465 45.0849 48.5655 44.9292L47.276 44.5837ZM40.1034 51.1443C42.4264 51.7667 43.5958 54.0503 42.9846 56.3314C42.6993 57.396 42.0776 58.2675 41.2596 58.8304C40.3251 59.4739 39.1346 59.7148 37.8959 59.3829C35.5729 58.7604 34.1934 56.4206 34.8045 54.1395C35.4157 51.8585 37.7804 50.5218 40.1034 51.1443Z" fill="white" fill-opacity="0.1"/>
<path fill-rule="evenodd" clip-rule="evenodd" d="M40.9633 47.8185C36.7892 46.7 32.4946 49.1276 31.3963 53.2263C30.2981 57.325 32.8035 61.5747 36.9776 62.6932C41.1517 63.8116 45.2949 61.3434 46.3931 57.2447L42.9998 56.3355L44.678 50.0723C44.5844 49.9691 44.541 49.9146 44.3882 49.7701C43.4547 48.8876 42.3151 48.1807 40.9633 47.8185ZM40.1035 51.1443C42.4266 51.7668 43.5959 54.0504 42.9847 56.3314C42.6994 57.3961 42.0777 58.2675 41.2597 58.8305C40.3252 59.4739 39.1347 59.7148 37.896 59.3829C35.573 58.7605 34.1935 56.4206 34.8047 54.1396C35.4159 51.8585 37.7806 50.5219 40.1035 51.1443Z" fill="url(#paint3_radial)"/>
</g>
<circle cx="17.7612" cy="56.0499" r="14.7972" transform="rotate(-13.0758 17.7612 56.0499)" fill="#C4C4C4"/>
<circle cx="17.7612" cy="56.0499" r="14.7972" transform="rotate(-13.0758 17.7612 56.0499)" fill="url(#paint4_linear)"/>
<g filter="url(#filter2_bi)">
<path fill-rule="evenodd" clip-rule="evenodd" d="M19.891 44.9674C19.3051 45.1035 18.9386 45.6801 19.0722 46.2554L21.6488 57.3489L20.1818 51.0329C20.1818 51.0329 19.3052 50.7126 18.2157 50.616C17.4021 50.5438 16.4262 50.6573 15.8434 50.7926C11.6341 51.7703 8.98743 55.9334 9.94743 60.0667C10.9074 64.1999 15.1181 66.7704 19.3274 65.7928C23.5367 64.8151 26.0307 60.6873 25.0707 56.5541L22.4941 45.4606C22.3604 44.8853 21.7773 44.5293 21.1914 44.6654L19.891 44.9674ZM16.6502 54.1317C18.9928 53.5876 21.0992 55.0522 21.6335 57.3524C21.8829 58.4261 21.7445 59.4876 21.2877 60.3693C20.766 61.3768 19.829 62.1497 18.5798 62.4398C16.2372 62.9839 13.9188 61.5686 13.3845 59.2684C12.8502 56.9681 14.3075 54.6758 16.6502 54.1317Z" fill="white" fill-opacity="0.1"/>
<path fill-rule="evenodd" clip-rule="evenodd" d="M15.8435 50.7924C11.6342 51.77 8.98755 55.9332 9.94755 60.0665C10.9075 64.1997 15.1182 66.7702 19.3275 65.7925C23.5368 64.8149 26.0308 60.6871 25.0708 56.5539L21.6489 57.3487L20.1819 51.0327C20.0507 50.9857 19.9868 50.958 19.7839 50.9025C18.545 50.5631 17.2068 50.4758 15.8435 50.7924ZM16.6503 54.1315C18.9929 53.5874 21.0994 55.0519 21.6336 57.3522C21.883 58.4259 21.7446 59.4874 21.2878 60.3691C20.7661 61.3766 19.8291 62.1495 18.5799 62.4396C16.2373 62.9837 13.9189 61.5684 13.3846 59.2682C12.8504 56.9679 14.3077 54.6756 16.6503 54.1315Z" fill="url(#paint5_radial)"/>
</g>
<g filter="url(#filter3_bi)">
<path fill-rule="evenodd" clip-rule="evenodd" d="M35.3217 46.3247L22.9227 33.9258C20.6013 31.6043 20.6013 27.8405 22.9227 25.519L46.7007 1.74104C47.8155 0.62623 49.3275 -6.10352e-05 50.9041 -6.10352e-05H63.303C66.5861 -6.10352e-05 69.2475 2.66138 69.2475 5.94443V18.3434C69.2475 19.9199 68.6212 21.4319 67.5064 22.5467L43.7284 46.3247C41.407 48.6462 37.6431 48.6462 35.3217 46.3247ZM58.8446 14.8612C61.3069 14.8612 63.303 12.8651 63.303 10.4028C63.303 7.9405 61.3069 5.94443 58.8446 5.94443C56.3824 5.94443 54.3863 7.9405 54.3863 10.4028C54.3863 12.8651 56.3824 14.8612 58.8446 14.8612Z" fill="#1D1D1D" fill-opacity="0.05"/>
<path fill-rule="evenodd" clip-rule="evenodd" d="M35.3217 46.3247L22.9227 33.9258C20.6013 31.6043 20.6013 27.8405 22.9227 25.519L46.7007 1.74104C47.8155 0.62623 49.3275 -6.10352e-05 50.9041 -6.10352e-05H63.303C66.5861 -6.10352e-05 69.2475 2.66138 69.2475 5.94443V18.3434C69.2475 19.9199 68.6212 21.4319 67.5064 22.5467L43.7284 46.3247C41.407 48.6462 37.6431 48.6462 35.3217 46.3247ZM58.8446 14.8612C61.3069 14.8612 63.303 12.8651 63.303 10.4028C63.303 7.9405 61.3069 5.94443 58.8446 5.94443C56.3824 5.94443 54.3863 7.9405 54.3863 10.4028C54.3863 12.8651 56.3824 14.8612 58.8446 14.8612Z" fill="url(#paint6_linear)" fill-opacity="0.2"/>
<path d="M35.5318 46.1145L23.1329 33.7156C20.9275 31.5102 20.9275 27.9345 23.1329 25.7292L46.9109 1.95121C47.9699 0.89214 49.4063 0.297163 50.9041 0.297163H63.303C66.4219 0.297163 68.9503 2.82553 68.9503 5.94443V18.3434C68.9503 19.8411 68.3553 21.2775 67.2962 22.3366L43.5183 46.1145C41.3129 48.3199 37.7372 48.3199 35.5318 46.1145ZM58.8446 15.1584C61.4711 15.1584 63.6002 13.0292 63.6002 10.4028C63.6002 7.77635 61.4711 5.6472 58.8446 5.6472C56.2182 5.6472 54.0891 7.77635 54.0891 10.4028C54.0891 13.0292 56.2182 15.1584 58.8446 15.1584Z" stroke="url(#paint7_linear)" stroke-opacity="0.1" stroke-width="0.594449"/>
</g>
<defs>
<filter id="filter0_bi" x="14.6656" y="18.6403" width="32.1701" height="38.6312" filterUnits="userSpaceOnUse" color-interpolation-filters="sRGB">
<feFlood flood-opacity="0" result="BackgroundImageFix"/>
<feGaussianBlur in="BackgroundImage" stdDeviation="4.16576"/>
<feComposite in2="SourceAlpha" operator="in" result="effect1_backgroundBlur"/>
<feBlend mode="normal" in="SourceGraphic" in2="effect1_backgroundBlur" result="shape"/>
<feColorMatrix in="SourceAlpha" type="matrix" values="0 0 0 0 0 0 0 0 0 0 0 0 0 0 0 0 0 0 127 0" result="hardAlpha"/>
<feOffset dy="1.38859"/>
<feGaussianBlur stdDeviation="2.77717"/>
<feComposite in2="hardAlpha" operator="arithmetic" k2="-1" k3="1"/>
<feColorMatrix type="matrix" values="0 0 0 0 1 0 0 0 0 1 0 0 0 0 1 0 0 0 0.15 0"/>
<feBlend mode="normal" in2="shape" result="effect2_innerShadow"/>
</filter>
<filter id="filter1_bi" x="22.8062" y="36.2141" width="34.9018" height="35.0801" filterUnits="userSpaceOnUse" color-interpolation-filters="sRGB">
<feFlood flood-opacity="0" result="BackgroundImageFix"/>
<feGaussianBlur in="BackgroundImage" stdDeviation="4.16576"/>
<feComposite in2="SourceAlpha" operator="in" result="effect1_backgroundBlur"/>
<feBlend mode="normal" in="SourceGraphic" in2="effect1_backgroundBlur" result="shape"/>
<feColorMatrix in="SourceAlpha" type="matrix" values="0 0 0 0 0 0 0 0 0 0 0 0 0 0 0 0 0 0 127 0" result="hardAlpha"/>
<feOffset dy="1.38859"/>
<feGaussianBlur stdDeviation="2.77717"/>
<feComposite in2="hardAlpha" operator="arithmetic" k2="-1" k3="1"/>
<feColorMatrix type="matrix" values="0 0 0 0 1 0 0 0 0 1 0 0 0 0 1 0 0 0 0.15 0"/>
<feBlend mode="normal" in2="shape" result="effect2_innerShadow"/>
</filter>
<filter id="filter2_bi" x="1.41897" y="36.3049" width="32.1886" height="38.0269" filterUnits="userSpaceOnUse" color-interpolation-filters="sRGB">
<feFlood flood-opacity="0" result="BackgroundImageFix"/>
<feGaussianBlur in="BackgroundImage" stdDeviation="4.16576"/>
<feComposite in2="SourceAlpha" operator="in" result="effect1_backgroundBlur"/>
<feBlend mode="normal" in="SourceGraphic" in2="effect1_backgroundBlur" result="shape"/>
<feColorMatrix in="SourceAlpha" type="matrix" values="0 0 0 0 0 0 0 0 0 0 0 0 0 0 0 0 0 0 127 0" result="hardAlpha"/>
<feOffset dy="1.38859"/>
<feGaussianBlur stdDeviation="2.77717"/>
<feComposite in2="hardAlpha" operator="arithmetic" k2="-1" k3="1"/>
<feColorMatrix type="matrix" values="0 0 0 0 1 0 0 0 0 1 0 0 0 0 1 0 0 0 0.15 0"/>
<feBlend mode="normal" in2="shape" result="effect2_innerShadow"/>
</filter>
<filter id="filter3_bi" x="12.2649" y="-8.91679" width="65.8993" height="65.8993" filterUnits="userSpaceOnUse" color-interpolation-filters="sRGB">
<feFlood flood-opacity="0" result="BackgroundImageFix"/>
<feGaussianBlur in="BackgroundImage" stdDeviation="4.45837"/>
<feComposite in2="SourceAlpha" operator="in" result="effect1_backgroundBlur"/>
<feBlend mode="normal" in="SourceGraphic" in2="effect1_backgroundBlur" result="shape"/>
<feColorMatrix in="SourceAlpha" type="matrix" values="0 0 0 0 0 0 0 0 0 0 0 0 0 0 0 0 0 0 127 0" result="hardAlpha"/>
<feOffset dy="1.48612"/>
<feGaussianBlur stdDeviation="2.97224"/>
<feComposite in2="hardAlpha" operator="arithmetic" k2="-1" k3="1"/>
<feColorMatrix type="matrix" values="0 0 0 0 1 0 0 0 0 1 0 0 0 0 1 0 0 0 0.15 0"/>
<feBlend mode="normal" in2="shape" result="effect2_innerShadow"/>
</filter>
<linearGradient id="paint0_linear" x1="16.7518" y1="30.1325" x2="49.012" y2="34.6131" gradientUnits="userSpaceOnUse">
<stop stop-color="#FE82DB"/>
<stop offset="1" stop-color="#68E4FF"/>
</linearGradient>
<radialGradient id="paint1_radial" cx="0" cy="0" r="1" gradientUnits="userSpaceOnUse" gradientTransform="translate(32.6322 32.2367) rotate(-30) scale(15.4441 15.1653)">
<stop stop-color="#060606" stop-opacity="0.476377"/>
<stop offset="0.110106" stop-color="#030509" stop-opacity="0.253808"/>
<stop offset="0.45098" stop-color="#00040C" stop-opacity="0"/>
<stop offset="0.659125" stop-color="#144A4C" stop-opacity="0"/>
<stop offset="1" stop-color="#2AFDC5" stop-opacity="0"/>
</radialGradient>
<linearGradient id="paint2_linear" x1="26.6169" y1="44.4812" x2="58.8772" y2="48.9618" gradientUnits="userSpaceOnUse">
<stop stop-color="#FE82DB"/>
<stop offset="1" stop-color="#68E4FF"/>
</linearGradient>
<radialGradient id="paint3_radial" cx="0" cy="0" r="1" gradientUnits="userSpaceOnUse" gradientTransform="translate(46.6085 50.2077) rotate(15) scale(15.4441 15.1653)">
<stop stop-color="#060606" stop-opacity="0.476377"/>
<stop offset="0.110106" stop-color="#030509" stop-opacity="0.253808"/>
<stop offset="0.45098" stop-color="#00040C" stop-opacity="0"/>
<stop offset="0.659125" stop-color="#144A4C" stop-opacity="0"/>
<stop offset="1" stop-color="#2AFDC5" stop-opacity="0"/>
</radialGradient>
<linearGradient id="paint4_linear" x1="4.19714" y1="47.1716" x2="36.4574" y2="51.6522" gradientUnits="userSpaceOnUse">
<stop stop-color="#FE82DB"/>
<stop offset="1" stop-color="#68E4FF"/>
</linearGradient>
<radialGradient id="paint5_radial" cx="0" cy="0" r="1" gradientUnits="userSpaceOnUse" gradientTransform="translate(21.949 50.2436) rotate(-13.0758) scale(15.4441 15.1653)">
<stop stop-color="#060606" stop-opacity="0.476377"/>
<stop offset="0.110106" stop-color="#030509" stop-opacity="0.253808"/>
<stop offset="0.45098" stop-color="#00040C" stop-opacity="0"/>
<stop offset="0.659125" stop-color="#144A4C" stop-opacity="0"/>
<stop offset="1" stop-color="#2AFDC5" stop-opacity="0"/>
</radialGradient>
<linearGradient id="paint6_linear" x1="23.1844" y1="9.61312" x2="75.5802" y2="16.8903" gradientUnits="userSpaceOnUse">
<stop stop-color="#FE82DB"/>
<stop offset="1" stop-color="#68E4FF"/>
</linearGradient>
<linearGradient id="paint7_linear" x1="22.6837" y1="2.18475" x2="69.2475" y2="2.18475" gradientUnits="userSpaceOnUse">
<stop stop-color="#FD84DC"/>
<stop offset="1" stop-color="#7FD6FA"/>
</linearGradient>
</defs>
</svg>
