<svg width="50" height="50" viewBox="0 0 50 50" fill="none" xmlns="http://www.w3.org/2000/svg">
<path opacity="0.4" d="M36.6889 0H13.3333C4.82222 0 0 4.82222 0 13.3333V36.6667C0 45.1778 4.82222 50 13.3333 50H36.6889C45.2 50 50 45.1778 50 36.6667V13.3333C50 4.82222 45.2 0 36.6889 0Z" fill="white" fill-opacity="0.7"/>
<path d="M22.8124 36.6804C22.8124 37.9615 23.7918 39 24.9999 39C26.208 39 27.1873 37.9616 27.1873 36.6804C27.0725 33.6044 22.9276 33.6035 22.8124 36.6804Z" fill="#D0CBD0"/>
<path d="M28.9172 25.575C27.56 26.548 26.7499 28.1329 26.7499 29.8145C26.7499 30.8393 25.9665 31.6701 24.9999 31.6701C24.0334 31.6701 23.25 30.8393 23.25 29.8145C23.25 26.8989 24.6357 24.1647 26.9568 22.5005C29.7338 20.5029 28.5105 15.9109 25.1675 15.7156C24.1982 15.6677 23.281 16.0314 22.5831 16.7382C21.8846 17.4457 21.5 18.3991 21.5 19.4227C21.4081 21.8837 18.092 21.8841 18 19.4227C18 17.3753 18.7692 15.4688 20.1659 14.0543C21.5619 12.6405 23.3957 11.9143 25.3283 12.0081C27.066 12.0929 28.7058 12.8636 29.9457 14.1784C31.1855 15.4931 31.9124 17.2319 31.9924 19.0745C32.1054 21.6832 30.9559 24.1133 28.9172 25.575Z" fill="#D0CBD0"/>
</svg>
