<svg width="26" height="26" viewBox="0 0 26 26" fill="none" xmlns="http://www.w3.org/2000/svg">
<path opacity="0.4" d="M18.6306 0.273956H6.77067C2.44872 0.273956 0 2.72268 0 7.04462V18.8933C0 23.2152 2.44872 25.664 6.77067 25.664H18.6306C22.9526 25.664 25.39 23.2152 25.39 18.8933V7.04462C25.39 2.72268 22.9526 0.273956 18.6306 0.273956Z" fill="white" fill-opacity="0.7"/>
<path d="M8.0851 9.62893C7.50959 9.62893 7.03564 10.1029 7.03564 10.6897V19.4125C7.03564 19.988 7.50959 20.4619 8.0851 20.4619C8.67189 20.4619 9.14584 19.988 9.14584 19.4125V10.6897C9.14584 10.1029 8.67189 9.62893 8.0851 9.62893Z" fill="white" fill-opacity="0.7"/>
<path d="M12.7399 5.46497C12.1644 5.46497 11.6904 5.93891 11.6904 6.5257V19.4125C11.6904 19.988 12.1644 20.4619 12.7399 20.4619C13.3267 20.4619 13.8006 19.988 13.8006 19.4125V6.5257C13.8006 5.93891 13.3267 5.46497 12.7399 5.46497Z" fill="white" fill-opacity="0.7"/>
<path d="M17.3161 14.2329C16.7293 14.2329 16.2554 14.7068 16.2554 15.2936V19.4124C16.2554 19.988 16.7293 20.4619 17.3048 20.4619C17.8916 20.4619 18.3656 19.988 18.3656 19.4124V15.2936C18.3656 14.7068 17.8916 14.2329 17.3161 14.2329Z" fill="white" fill-opacity="0.7"/>
</svg>
