<svg width="27" height="26" viewBox="0 0 27 26" fill="none" xmlns="http://www.w3.org/2000/svg">
<path d="M25.5607 1L15.4668 8.46875L17.3438 4.06717L25.5607 1Z" fill="#E17726" stroke="#E17726" stroke-width="0.25" stroke-linecap="round" stroke-linejoin="round"/>
<path d="M2.27808 1L12.2821 8.53845L10.495 4.06716L2.27808 1Z" fill="#E27625" stroke="#E27625" stroke-width="0.25" stroke-linecap="round" stroke-linejoin="round"/>
<path d="M21.9262 18.3174L19.2405 22.4202L24.9913 24.0036L26.6387 18.4071L21.9262 18.3174Z" fill="#E27625" stroke="#E27625" stroke-width="0.25" stroke-linecap="round" stroke-linejoin="round"/>
<path d="M1.20947 18.4071L2.84684 24.0036L8.58768 22.4202L5.91194 18.3174L1.20947 18.4071Z" fill="#E27625" stroke="#E27625" stroke-width="0.25" stroke-linecap="round" stroke-linejoin="round"/>
<path d="M8.27832 11.3872L6.68091 13.7971L12.3718 14.056L12.1821 7.93164L8.27832 11.3872Z" fill="#E27625" stroke="#E27625" stroke-width="0.25" stroke-linecap="round" stroke-linejoin="round"/>
<path d="M19.5599 11.3866L15.5964 7.86133L15.4666 14.0554L21.1574 13.7965L19.5599 11.3866Z" fill="#E27625" stroke="#E27625" stroke-width="0.25" stroke-linecap="round" stroke-linejoin="round"/>
<path d="M8.58789 22.4196L12.0323 20.7566L9.06714 18.4463L8.58789 22.4196Z" fill="#E27625" stroke="#E27625" stroke-width="0.25" stroke-linecap="round" stroke-linejoin="round"/>
<path d="M15.8064 20.7566L19.2409 22.4196L18.7716 18.4463L15.8064 20.7566Z" fill="#E27625" stroke="#E27625" stroke-width="0.25" stroke-linecap="round" stroke-linejoin="round"/>
<path d="M19.2409 22.4198L15.8064 20.7568L16.0859 22.9875L16.0559 23.9335L19.2409 22.4198Z" fill="#D5BFB2" stroke="#D5BFB2" stroke-width="0.25" stroke-linecap="round" stroke-linejoin="round"/>
<path d="M8.58789 22.4198L11.7828 23.9335L11.7628 22.9875L12.0323 20.7568L8.58789 22.4198Z" fill="#D5BFB2" stroke="#D5BFB2" stroke-width="0.25" stroke-linecap="round" stroke-linejoin="round"/>
<path d="M11.8425 16.9726L8.98706 16.1361L11.0038 15.21L11.8425 16.9726Z" fill="#233447" stroke="#233447" stroke-width="0.25" stroke-linecap="round" stroke-linejoin="round"/>
<path d="M15.9958 16.9726L16.8345 15.21L18.8613 16.1361L15.9958 16.9726Z" fill="#233447" stroke="#233447" stroke-width="0.25" stroke-linecap="round" stroke-linejoin="round"/>
<path d="M8.5878 22.4202L9.08704 18.3174L5.91211 18.4071L8.5878 22.4202Z" fill="#CC6228" stroke="#CC6228" stroke-width="0.25" stroke-linecap="round" stroke-linejoin="round"/>
<path d="M18.7515 18.3174L19.2407 22.4202L21.9264 18.4071L18.7515 18.3174Z" fill="#CC6228" stroke="#CC6228" stroke-width="0.25" stroke-linecap="round" stroke-linejoin="round"/>
<path d="M21.1574 13.7959L15.4666 14.0548L15.9957 16.9727L16.8344 15.21L18.8611 16.1361L21.1574 13.7959Z" fill="#CC6228" stroke="#CC6228" stroke-width="0.25" stroke-linecap="round" stroke-linejoin="round"/>
<path d="M8.98721 16.1361L11.004 15.21L11.8427 16.9727L12.3718 14.0548L6.68091 13.7959L8.98721 16.1361Z" fill="#CC6228" stroke="#CC6228" stroke-width="0.25" stroke-linecap="round" stroke-linejoin="round"/>
<path d="M6.68091 13.7959L9.06711 18.4465L8.98718 16.1361L6.68091 13.7959Z" fill="#E27525" stroke="#E27525" stroke-width="0.25" stroke-linecap="round" stroke-linejoin="round"/>
<path d="M18.8613 16.1361L18.7715 18.4465L21.1577 13.7959L18.8613 16.1361Z" fill="#E27525" stroke="#E27525" stroke-width="0.25" stroke-linecap="round" stroke-linejoin="round"/>
<path d="M12.372 14.0557L11.8428 16.9735L12.5117 20.419L12.6615 15.8781L12.372 14.0557Z" fill="#E27525" stroke="#E27525" stroke-width="0.25" stroke-linecap="round" stroke-linejoin="round"/>
<path d="M15.4668 14.0557L15.1873 15.8682L15.3271 20.419L15.996 16.9735L15.4668 14.0557Z" fill="#E27525" stroke="#E27525" stroke-width="0.25" stroke-linecap="round" stroke-linejoin="round"/>
<path d="M15.9961 16.9733L15.3271 20.4188L15.8064 20.7574L18.7717 18.4471L18.8615 16.1367L15.9961 16.9733Z" fill="#F5841F" stroke="#F5841F" stroke-width="0.25" stroke-linecap="round" stroke-linejoin="round"/>
<path d="M8.98706 16.1367L9.06699 18.4471L12.0322 20.7574L12.5114 20.4188L11.8425 16.9733L8.98706 16.1367Z" fill="#F5841F" stroke="#F5841F" stroke-width="0.25" stroke-linecap="round" stroke-linejoin="round"/>
<path d="M16.0559 23.9346L16.0858 22.9885L15.8263 22.7694H12.0124L11.7628 22.9885L11.7828 23.9346L8.58789 22.4209L9.70609 23.3371L11.9725 24.9005H15.8562L18.1326 23.3371L19.2408 22.4209L16.0559 23.9346Z" fill="#C0AC9D" stroke="#C0AC9D" stroke-width="0.25" stroke-linecap="round" stroke-linejoin="round"/>
<path d="M15.8062 20.7575L15.327 20.4189H12.5115L12.0323 20.7575L11.7627 22.9882L12.0123 22.7691H15.8262L16.0858 22.9882L15.8062 20.7575Z" fill="#161616" stroke="#161616" stroke-width="0.25" stroke-linecap="round" stroke-linejoin="round"/>
<path d="M25.99 8.95668L26.8387 4.83396L25.5607 1L15.8064 8.21982L19.5603 11.3865L24.8618 12.9301L26.03 11.5658L25.5208 11.1973L26.3295 10.4605L25.7105 9.98243L26.5192 9.365L25.99 8.95668Z" fill="#763E1A" stroke="#763E1A" stroke-width="0.25" stroke-linecap="round" stroke-linejoin="round"/>
<path d="M1 4.83396L1.85863 8.95668L1.30951 9.365L2.12819 9.98243L1.50919 10.4605L2.31789 11.1973L1.8087 11.5658L2.97684 12.9301L8.27839 11.3865L12.0323 8.21982L2.27796 1L1 4.83396Z" fill="#763E1A" stroke="#763E1A" stroke-width="0.25" stroke-linecap="round" stroke-linejoin="round"/>
<path d="M24.8617 12.9292L19.5602 11.3857L21.1577 13.7957L18.7715 18.4462L21.9264 18.4064H26.6389L24.8617 12.9292Z" fill="#F5841F" stroke="#F5841F" stroke-width="0.25" stroke-linecap="round" stroke-linejoin="round"/>
<path d="M8.27812 11.3857L2.97664 12.9292L1.20947 18.4064H5.91194L9.06686 18.4462L6.68071 13.7957L8.27812 11.3857Z" fill="#F5841F" stroke="#F5841F" stroke-width="0.25" stroke-linecap="round" stroke-linejoin="round"/>
<path d="M15.4667 14.0556L15.8061 8.21997L17.3436 4.06738H10.4946L12.0321 8.21997L12.3716 14.0556L12.5014 15.8879L12.5114 20.419H15.3269L15.3369 15.8879L15.4667 14.0556Z" fill="#F5841F" stroke="#F5841F" stroke-width="0.25" stroke-linecap="round" stroke-linejoin="round"/>
</svg>
