<svg width="26" height="26" viewBox="0 0 26 26" fill="none" xmlns="http://www.w3.org/2000/svg">
<path opacity="0.4" d="M18.6306 0H6.77067C2.44872 0 0 2.44872 0 6.77067V18.6193C0 22.9413 2.44872 25.39 6.77067 25.39H18.6306C22.9526 25.39 25.39 22.9413 25.39 18.6193V6.77067C25.39 2.44872 22.9526 0 18.6306 0Z" fill="white" fill-opacity="0.7"/>
<path d="M20.3394 17.6423V15.4112C19.8411 15.664 19.3205 15.8797 18.7776 16.0433C17.1116 16.5491 14.9325 16.8242 12.6345 16.8242C10.5967 16.8242 8.61093 16.5937 7.04913 16.1846C6.40953 16.021 5.79224 15.7979 5.19727 15.5078L5.23445 17.6646C5.23445 17.6721 5.23445 17.6721 5.23445 17.6795C5.23445 17.7911 5.56169 18.2894 7.13093 18.7728C8.61837 19.2264 10.6264 19.4793 12.7758 19.4793C14.9177 19.4793 16.9331 19.219 18.4355 18.7505C20.0047 18.2596 20.3468 17.7464 20.3468 17.6423H20.3394Z" fill="#D0CBD0"/>
<path d="M18.7256 11.9306C17.0671 12.4214 14.9103 12.6892 12.6494 12.6892C10.4554 12.6892 8.36555 12.4363 6.75168 11.9678C6.19389 11.8116 5.65097 11.6033 5.13037 11.343L5.16012 13.0536L5.16756 13.6783C5.74766 14.3997 8.52173 15.3294 12.6419 15.3294C14.7913 15.3294 16.8216 15.0765 18.3463 14.6154C19.9527 14.1245 20.3022 13.6188 20.3022 13.5147C20.3022 13.4329 20.3469 13.3436 20.3469 13.2693H20.3543V11.2984C19.8337 11.5587 19.2908 11.7818 18.7256 11.9306Z" fill="#D0CBD0"/>
<path d="M18.3758 8.32353C16.8586 7.86242 14.7762 7.617 12.6492 7.617H12.5228C10.5445 7.617 8.66285 7.84011 7.22004 8.24916C5.68054 8.68051 5.1525 9.17137 5.08556 9.37217C5.07813 9.38705 5.07812 9.39448 5.07812 9.40192C5.07812 9.40192 5.07813 9.40192 5.093 9.43167C5.13762 9.58785 5.57642 10.0936 7.17541 10.5621C8.65541 10.986 10.604 11.224 12.6566 11.224C14.7762 11.224 16.7843 10.9786 18.3089 10.5249C19.9599 10.0341 20.3318 9.52092 20.3392 9.40936V9.40192C20.3318 9.29036 19.9599 8.79951 18.3758 8.32353Z" fill="#D0CBD0"/>
</svg>
