<svg width="26" height="26" viewBox="0 0 26 26" fill="none" xmlns="http://www.w3.org/2000/svg">
<path opacity="0.4" d="M18.6306 0.269989H6.77067C2.44872 0.269989 0 2.71872 0 7.04066V18.8893C0 23.2113 2.44872 25.66 6.77067 25.66H18.6306C22.9526 25.66 25.39 23.2113 25.39 18.8893V7.04066C25.39 2.71872 22.9526 0.269989 18.6306 0.269989Z" fill="white" fill-opacity="0.7"/>
<path d="M5.0918 17.2607V19.9359C5.0918 20.0986 5.22403 20.2342 5.39016 20.2342H7.45839C7.62114 20.2342 7.75676 20.102 7.75676 19.9359V15.2298L6.25475 16.7318C5.93604 17.0471 5.52918 17.2302 5.0918 17.2607Z" fill="#D0CBD0"/>
<path d="M8.78711 15.1959V19.9359C8.78711 20.0986 8.91934 20.2342 9.08548 20.2342H11.1537C11.3164 20.2342 11.4521 20.102 11.4521 19.9359V17.1455C10.9808 17.1353 10.54 16.9488 10.2077 16.6165L8.78711 15.1959Z" fill="#D0CBD0"/>
<path d="M12.4829 16.8505V19.9359C12.4829 20.0986 12.6151 20.2342 12.7813 20.2342H14.8495C15.0122 20.2342 15.1479 20.102 15.1479 19.9359V14.2432L12.7779 16.6132C12.6863 16.7047 12.588 16.7827 12.4829 16.8505Z" fill="#D0CBD0"/>
<path d="M18.6436 10.7441L16.1787 13.209V19.9359C16.1787 20.0986 16.3109 20.2342 16.4771 20.2342H18.5453C18.7081 20.2342 18.8437 20.102 18.8437 19.9359V10.9306C18.7759 10.873 18.725 10.8221 18.6877 10.7882L18.6436 10.7441Z" fill="#D0CBD0"/>
<path d="M20.3354 6.37712C20.2371 6.27202 20.0879 6.21777 19.898 6.21777C19.881 6.21777 19.8607 6.21777 19.8438 6.21777C18.8808 6.26184 17.9213 6.30931 16.9584 6.35339C16.8296 6.36017 16.6533 6.36695 16.5142 6.50596C16.4702 6.55004 16.4363 6.6009 16.4091 6.66193C16.2667 6.97047 16.4668 7.17051 16.5617 7.26544L16.8024 7.50956C16.9686 7.67909 17.1381 7.84862 17.3076 8.01475L11.4895 13.8363L8.87537 11.2222C8.71941 11.0662 8.50919 10.9781 8.28542 10.9781C8.06164 10.9781 7.85482 11.0662 7.69885 11.2222L4.21677 14.7009C3.89128 15.0264 3.89128 15.5519 4.21677 15.8774L4.37274 16.0334C4.5287 16.1893 4.73892 16.2775 4.96269 16.2775C5.18647 16.2775 5.39329 16.1893 5.54926 16.0334L8.28542 13.2972L10.8995 15.9113C11.0555 16.0673 11.2657 16.1554 11.4895 16.1554C11.7132 16.1554 11.9201 16.0673 12.0794 15.9113L18.6435 9.34723L19.386 10.0864C19.4742 10.1745 19.5962 10.2966 19.7827 10.2966C19.8607 10.2966 19.9387 10.2762 20.0201 10.2322C20.0743 10.2016 20.1218 10.1677 20.1625 10.1271C20.3083 9.98126 20.3354 9.79478 20.3422 9.64899C20.3693 9.02513 20.3998 8.40127 20.4303 7.77402L20.4744 6.83485C20.4846 6.63819 20.4405 6.48562 20.3354 6.37712Z" fill="#D0CBD0"/>
</svg>
