<svg width="25" height="25" viewBox="0 0 25 25" fill="none" xmlns="http://www.w3.org/2000/svg">
<g clip-path="url(#clip0)">
<g opacity="0.4">
<path d="M17.1377 0.509373C17.0893 0.559404 17.0443 0.612405 17.0026 0.668063C16.5351 1.36541 16.6371 2.29801 17.2444 2.87773L17.7697 3.40305C17.9511 3.58383 18.1592 3.7357 18.3867 3.85332L19.0121 4.17851L3.4694 4.17851C2.62269 4.14547 1.87719 4.73197 1.71 5.56268C1.57638 6.47396 2.20686 7.32104 3.11814 7.45461C3.20408 7.46722 3.29085 7.47306 3.37768 7.47217L18.9871 7.47217L18.4951 7.69731C18.2322 7.81899 17.9923 7.98545 17.7864 8.18927L17.236 8.7396C16.6288 9.31933 16.5267 10.2519 16.9942 10.9493C17.5384 11.6924 18.5819 11.8537 19.325 11.3096C19.3851 11.2656 19.4421 11.2177 19.4957 11.1661L23.6649 6.99688C24.3166 6.34597 24.3171 5.29007 23.6662 4.63843C23.6658 4.63801 23.6653 4.63754 23.6649 4.63713L19.4957 0.467942C18.8331 -0.171766 17.7774 -0.153214 17.1377 0.509373Z" fill="url(#paint0_linear)"/>
</g>
<path d="M5.45397 13.826L1.33481 17.9368C0.68317 18.5877 0.682597 19.6436 1.33351 20.2953C1.33393 20.2957 1.3344 20.2962 1.33481 20.2966L5.504 24.4658C6.08372 25.0731 7.01632 25.1751 7.71367 24.7076C8.45677 24.1634 8.61812 23.1199 8.07399 22.3768C8.03 22.3168 7.98206 22.2597 7.93047 22.2061L7.36346 21.639C7.09147 21.3673 6.76049 21.1618 6.39621 21.0387L5.87923 20.8136L21.6304 20.8136C22.4823 20.8452 23.2298 20.2501 23.3898 19.4127C23.5372 18.5036 22.9198 17.647 22.0106 17.4996C21.9152 17.4841 21.8187 17.477 21.7221 17.4782L5.87923 17.4782L6.35451 17.3114C6.70608 17.1862 7.02518 16.9839 7.28841 16.7194L7.88877 16.119C8.54026 15.468 8.54068 14.4121 7.88966 13.7606C7.8573 13.7282 7.82363 13.6972 7.78871 13.6676C7.08667 13.1083 6.07398 13.177 5.45397 13.826Z" fill="url(#paint1_linear)"/>
</g>
<defs>
<linearGradient id="paint0_linear" x1="6.18452" y1="11.1472" x2="7.10929" y2="-1.71053" gradientUnits="userSpaceOnUse">
<stop stop-color="#19FADD"/>
<stop offset="1" stop-color="#68E4FF"/>
</linearGradient>
<linearGradient id="paint1_linear" x1="5.35888" y1="24.5121" x2="6.29183" y2="11.5678" gradientUnits="userSpaceOnUse">
<stop stop-color="#19FADD"/>
<stop offset="1" stop-color="#68E4FF"/>
</linearGradient>
<clipPath id="clip0">
<rect width="25" height="25" fill="white" transform="translate(0 25) rotate(-90)"/>
</clipPath>
</defs>
</svg>
