<svg width="26" height="27" viewBox="0 0 26 27" fill="none" xmlns="http://www.w3.org/2000/svg">
<path opacity="0.4" d="M18.6306 0.82959H6.77067C2.44872 0.82959 0 3.27831 0 7.60026V19.4489C0 23.7709 2.44872 26.2196 6.77067 26.2196H18.6306C22.9526 26.2196 25.39 23.7709 25.39 19.4489V7.60026C25.39 3.27831 22.9526 0.82959 18.6306 0.82959Z" fill="white" fill-opacity="0.7"/>
<g opacity="0.7" clip-path="url(#clip0)">
<path d="M15.0503 6.83327C15.0257 6.85867 15.0028 6.88559 14.9817 6.91385C14.7443 7.26796 14.7961 7.74153 15.1045 8.03592L15.3712 8.30267C15.4633 8.39448 15.569 8.47159 15.6846 8.53132L16.0021 8.69646L8.10952 8.69646C7.67956 8.67968 7.301 8.9775 7.2161 9.39934C7.14825 9.86209 7.46841 10.2922 7.93116 10.3601C7.9748 10.3665 8.01886 10.3694 8.06295 10.369L15.9894 10.369L15.7396 10.4833C15.6061 10.5451 15.4843 10.6296 15.3797 10.7331L15.1002 11.0126C14.7918 11.307 14.74 11.7805 14.9774 12.1346C15.2537 12.512 15.7836 12.5939 16.161 12.3176C16.1915 12.2953 16.2205 12.2709 16.2477 12.2447L18.3648 10.1276C18.6957 9.79709 18.696 9.26091 18.3655 8.93C18.3653 8.92979 18.365 8.92955 18.3648 8.92934L16.2477 6.81223C15.9112 6.48738 15.3751 6.4968 15.0503 6.83327Z" fill="white"/>
<path d="M9.11742 13.5955L7.02571 15.6829C6.69481 16.0135 6.69452 16.5496 7.02505 16.8806C7.02526 16.8808 7.0255 16.881 7.02571 16.8812L9.14283 18.9983C9.43721 19.3067 9.91078 19.3585 10.2649 19.1211C10.6422 18.8448 10.7242 18.3149 10.4479 17.9375C10.4255 17.9071 10.4012 17.8781 10.375 17.8509L10.0871 17.5629C9.94894 17.4249 9.78087 17.3206 9.59589 17.2581L9.33337 17.1437L17.3318 17.1437C17.7644 17.1598 18.144 16.8576 18.2252 16.4324C18.3001 15.9707 17.9866 15.5358 17.5249 15.4609C17.4764 15.453 17.4274 15.4494 17.3784 15.45L9.33337 15.45L9.57472 15.3654C9.75324 15.3018 9.91528 15.1991 10.049 15.0647L10.3538 14.7599C10.6846 14.4293 10.6849 13.8931 10.3543 13.5622C10.3378 13.5458 10.3207 13.53 10.303 13.515C9.94651 13.231 9.43226 13.2659 9.11742 13.5955Z" fill="white"/>
</g>
<defs>
<clipPath id="clip0">
<rect width="12.695" height="12.695" fill="white" transform="translate(6.34766 19.2696) rotate(-90)"/>
</clipPath>
</defs>
</svg>
