<svg width="81" height="67" viewBox="0 0 81 67" fill="none" xmlns="http://www.w3.org/2000/svg">
<ellipse cx="40.3321" cy="48.9073" rx="40.3321" ry="17.6453" fill="url(#paint0_linear)"/>
<g filter="url(#filter0_bi)">
<ellipse cx="40.3321" cy="33.7828" rx="40.3321" ry="17.6453" fill="#F1F1F1" fill-opacity="0.1"/>
<ellipse cx="40.3321" cy="33.7828" rx="40.3321" ry="17.6453" fill="url(#paint1_linear)" fill-opacity="0.2"/>
<path d="M80.1601 33.7828C80.1601 36.0523 79.1109 38.2541 77.1323 40.3007C75.1513 42.3498 72.2605 44.2181 68.6491 45.798C61.428 48.9573 51.4168 50.9239 40.3321 50.9239C29.2474 50.9239 19.2362 48.9573 12.0151 45.798C8.40375 44.2181 5.51292 42.3498 3.53196 40.3007C1.55334 38.2541 0.504151 36.0523 0.504151 33.7828C0.504151 31.5133 1.55334 29.3115 3.53196 27.2649C5.51292 25.2158 8.40375 23.3475 12.0151 21.7676C19.2362 18.6083 29.2474 16.6416 40.3321 16.6416C51.4168 16.6416 61.428 18.6083 68.6491 21.7676C72.2605 23.3475 75.1513 25.2158 77.1323 27.2649C79.1109 29.3115 80.1601 31.5133 80.1601 33.7828Z" stroke="url(#paint2_linear)" stroke-opacity="0.1" stroke-width="1.0083"/>
</g>
<g filter="url(#filter1_bi)">
<ellipse cx="40.3321" cy="18.6585" rx="40.3321" ry="17.6453" fill="#F1F1F1" fill-opacity="0.1"/>
<ellipse cx="40.3321" cy="18.6585" rx="40.3321" ry="17.6453" fill="url(#paint3_linear)" fill-opacity="0.2"/>
<path d="M80.1601 18.6585C80.1601 20.928 79.1109 23.1298 77.1323 25.1764C75.1513 27.2254 72.2605 29.0937 68.6491 30.6737C61.428 33.8329 51.4168 35.7996 40.3321 35.7996C29.2474 35.7996 19.2362 33.8329 12.0151 30.6737C8.40375 29.0937 5.51292 27.2254 3.53196 25.1764C1.55334 23.1298 0.504151 20.928 0.504151 18.6585C0.504151 16.389 1.55334 14.1871 3.53196 12.1405C5.51292 10.0915 8.40375 8.22318 12.0151 6.64322C19.2362 3.48397 29.2474 1.5173 40.3321 1.5173C51.4168 1.5173 61.428 3.48397 68.6491 6.64322C72.2605 8.22318 75.1513 10.0915 77.1323 12.1405C79.1109 14.1871 80.1601 16.389 80.1601 18.6585Z" stroke="url(#paint4_linear)" stroke-opacity="0.1" stroke-width="1.0083"/>
</g>
<g filter="url(#filter2_i)">
<path fill-rule="evenodd" clip-rule="evenodd" d="M63.4426 11.7958C62.5046 11.2544 60.984 11.2543 60.046 11.7958L41.9581 22.238L52.2563 16.2928C52.2563 16.2928 51.8481 15.1214 50.7682 13.8734C49.9617 12.9413 48.6143 11.9612 47.6812 11.4225C40.9419 7.53195 29.9629 7.53197 23.2236 11.4225C16.4844 15.3131 16.4843 21.6513 23.2236 25.5419C29.9629 29.4325 40.6975 29.2913 47.4367 25.4008L65.5246 14.9586C66.4626 14.4171 66.4626 13.5393 65.5246 12.9978L63.4426 11.7958ZM42.273 14.5994C46.0236 16.7647 45.6843 20.0586 41.9337 22.2239C40.1831 23.2345 38.0058 23.8162 35.801 23.9287C33.2818 24.0575 30.7266 23.5743 28.7267 22.4197C24.9761 20.2544 24.976 16.7646 28.7265 14.5994C32.4771 12.4342 38.5224 12.4342 42.273 14.5994Z" fill="white" fill-opacity="0.2"/>
</g>
<defs>
<filter id="filter0_bi" x="-15.1245" y="1.01294" width="110.913" height="65.5397" filterUnits="userSpaceOnUse" color-interpolation-filters="sRGB">
<feFlood flood-opacity="0" result="BackgroundImageFix"/>
<feGaussianBlur in="BackgroundImage" stdDeviation="7.56227"/>
<feComposite in2="SourceAlpha" operator="in" result="effect1_backgroundBlur"/>
<feBlend mode="normal" in="SourceGraphic" in2="effect1_backgroundBlur" result="shape"/>
<feColorMatrix in="SourceAlpha" type="matrix" values="0 0 0 0 0 0 0 0 0 0 0 0 0 0 0 0 0 0 127 0" result="hardAlpha"/>
<feOffset dy="2.52076"/>
<feGaussianBlur stdDeviation="5.04151"/>
<feComposite in2="hardAlpha" operator="arithmetic" k2="-1" k3="1"/>
<feColorMatrix type="matrix" values="0 0 0 0 1 0 0 0 0 1 0 0 0 0 1 0 0 0 0.4 0"/>
<feBlend mode="normal" in2="shape" result="effect2_innerShadow"/>
</filter>
<filter id="filter1_bi" x="-15.1245" y="-14.1114" width="110.913" height="65.5397" filterUnits="userSpaceOnUse" color-interpolation-filters="sRGB">
<feFlood flood-opacity="0" result="BackgroundImageFix"/>
<feGaussianBlur in="BackgroundImage" stdDeviation="7.56227"/>
<feComposite in2="SourceAlpha" operator="in" result="effect1_backgroundBlur"/>
<feBlend mode="normal" in="SourceGraphic" in2="effect1_backgroundBlur" result="shape"/>
<feColorMatrix in="SourceAlpha" type="matrix" values="0 0 0 0 0 0 0 0 0 0 0 0 0 0 0 0 0 0 127 0" result="hardAlpha"/>
<feOffset dy="2.52076"/>
<feGaussianBlur stdDeviation="5.04151"/>
<feComposite in2="hardAlpha" operator="arithmetic" k2="-1" k3="1"/>
<feColorMatrix type="matrix" values="0 0 0 0 1 0 0 0 0 1 0 0 0 0 1 0 0 0 0.4 0"/>
<feBlend mode="normal" in2="shape" result="effect2_innerShadow"/>
</filter>
<filter id="filter2_i" x="18.1689" y="8.50461" width="48.059" height="19.8856" filterUnits="userSpaceOnUse" color-interpolation-filters="sRGB">
<feFlood flood-opacity="0" result="BackgroundImageFix"/>
<feBlend mode="normal" in="SourceGraphic" in2="BackgroundImageFix" result="shape"/>
<feColorMatrix in="SourceAlpha" type="matrix" values="0 0 0 0 0 0 0 0 0 0 0 0 0 0 0 0 0 0 127 0" result="hardAlpha"/>
<feOffset/>
<feGaussianBlur stdDeviation="1.95155"/>
<feComposite in2="hardAlpha" operator="arithmetic" k2="-1" k3="1"/>
<feColorMatrix type="matrix" values="0 0 0 0 1 0 0 0 0 1 0 0 0 0 1 0 0 0 0.12 0"/>
<feBlend mode="normal" in2="shape" result="effect1_innerShadow"/>
</filter>
<linearGradient id="paint0_linear" x1="0" y1="31.262" x2="75.6604" y2="75.1742" gradientUnits="userSpaceOnUse">
<stop stop-color="#FFD482"/>
<stop offset="1" stop-color="#FF377F"/>
</linearGradient>
<linearGradient id="paint1_linear" x1="0" y1="16.1375" x2="75.6604" y2="60.0496" gradientUnits="userSpaceOnUse">
<stop stop-color="#FFD482"/>
<stop offset="1" stop-color="#FF377F"/>
</linearGradient>
<linearGradient id="paint2_linear" x1="2.52076" y1="17.7416" x2="80.6642" y2="17.7416" gradientUnits="userSpaceOnUse">
<stop stop-color="white"/>
<stop offset="1" stop-color="#FF4980"/>
</linearGradient>
<linearGradient id="paint3_linear" x1="0" y1="1.01315" x2="75.6604" y2="44.9253" gradientUnits="userSpaceOnUse">
<stop stop-color="#FFD482"/>
<stop offset="1" stop-color="#FF377F"/>
</linearGradient>
<linearGradient id="paint4_linear" x1="2.52076" y1="2.61727" x2="80.6642" y2="2.61727" gradientUnits="userSpaceOnUse">
<stop stop-color="white"/>
<stop offset="1" stop-color="#FF4980"/>
</linearGradient>
</defs>
</svg>
