<svg width="24" height="24" viewBox="0 0 24 24" fill="none" xmlns="http://www.w3.org/2000/svg">
<g clip-path="url(#clip0)">
<path d="M11.9995 16.4482C11.3285 16.4482 10.7661 17.0107 10.7661 17.6816C10.7661 18.3526 11.3285 18.915 11.9995 18.915C12.6458 18.915 13.2329 18.3526 13.2033 17.7112C13.2329 17.0057 12.6754 16.4482 11.9995 16.4482Z" fill="#07D9DE"/>
<path d="M23.416 20.8188C24.1906 19.4818 24.1955 17.8883 23.4259 16.5562L15.6999 3.17638C14.9352 1.82951 13.5538 1.03027 12.0046 1.03027C10.4555 1.03027 9.0741 1.83445 8.30939 3.17144L0.573551 16.5661C-0.196086 17.913 -0.191152 19.5164 0.588352 20.8534C1.35799 22.1756 2.73446 22.9699 4.27373 22.9699H19.7059C21.2502 22.9699 22.6365 22.1657 23.416 20.8188ZM21.7386 19.8518C21.3094 20.5919 20.5496 21.031 19.701 21.031H4.2688C3.43009 21.031 2.67525 20.6017 2.2559 19.8765C1.83161 19.1414 1.82668 18.2632 2.25097 17.5232L9.98681 4.13349C10.4062 3.39839 11.1561 2.96423 12.0046 2.96423C12.8483 2.96423 13.6031 3.40332 14.0225 4.13842L21.7534 17.5281C22.1678 18.2484 22.1629 19.1167 21.7386 19.8518Z" fill="#07D9DE"/>
<path d="M11.6939 7.7897C11.1068 7.95744 10.7417 8.49027 10.7417 9.13657C10.7713 9.52632 10.796 9.92101 10.8256 10.3108C10.9094 11.7958 10.9933 13.2512 11.0772 14.7362C11.1068 15.2394 11.4965 15.6045 11.9998 15.6045C12.503 15.6045 12.8977 15.2147 12.9223 14.7066C12.9223 14.4007 12.9223 14.1195 12.9519 13.8087C13.0062 12.8565 13.0654 11.9043 13.1197 10.9521C13.1493 10.3354 13.2036 9.71873 13.2332 9.10203C13.2332 8.88002 13.2036 8.68268 13.1197 8.48534C12.8681 7.93278 12.281 7.65156 11.6939 7.7897Z" fill="#07D9DE"/>
</g>
<defs>
<clipPath id="clip0">
<rect width="24" height="24" fill="white"/>
</clipPath>
</defs>
</svg>
