<svg width="26" height="25" viewBox="0 0 26 25" fill="none" xmlns="http://www.w3.org/2000/svg">
<path d="M18.0494 10.5052L13.0001 5.65L7.94827 10.5073L5.01028 7.6823L13.0001 0L20.9872 7.68L18.0493 10.505L18.0494 10.5052ZM26 12.5L23.0619 9.6745L20.124 12.4994L23.0621 15.3245L26 12.5ZM18.0494 14.4951L13.0001 19.35L7.94838 14.4928L5.00883 17.3163L5.01028 17.3178L13.0001 25L20.9872 17.32L20.9914 17.316L18.0491 14.4948L18.0494 14.4951ZM5.87608 12.5012L2.93799 9.6761L0.000102997 12.501L2.93809 15.3261L5.87608 12.5012Z" fill="#F3BA2F"/>
<path d="M10.0203 12.4984H10.019L13 9.63184L15.2035 11.7499L15.4566 11.9934L15.9787 12.4955L15.9828 12.4994L15.9787 12.5035L13 15.368L10.0188 12.5014L10.0173 12.4998L10.02 12.4984" fill="#F3BA2F"/>
</svg>
