<svg width="27" height="26" viewBox="0 0 27 26" fill="none" xmlns="http://www.w3.org/2000/svg">
<path d="M13.4903 19.8218L20.9835 16.2988L13.4971 26L12.3724 24.5424V19.2945L13.4903 19.8218Z" fill="#708299"/>
<path d="M13.4971 0L22.0957 14.8573H4.89832L13.4971 0Z" fill="#708299"/>
<path d="M4.89834 14.8793L13.4971 0V14.8793H4.89834Z" fill="#68788E"/>
<path d="M16.0984 8.25195H14.4109V9.87695H16.0984V8.25195Z" fill="white"/>
<path d="M13.4972 10.8226L13.531 10.8071L22.095 14.8696H22.0873L13.5234 18.9321L13.4896 18.9167L12.3725 18.3902V11.353L13.4972 10.8226Z" fill="#3C3C47"/>
<path d="M16.0984 5.17822H14.4109V6.80322H16.0984V5.17822Z" fill="white"/>
<path d="M13.4903 19.8215L13.4971 25.9997L6.00535 16.292L13.4903 19.8215Z" fill="#68788E"/>
<path d="M4.91438 14.8696L13.4971 10.8226L13.5309 10.8071L13.5233 18.9321L13.4895 18.9167L4.90675 14.8696H4.91438Z" fill="#31313B"/>
</svg>
