<svg width="27" height="23" viewBox="0 0 27 23" fill="none" xmlns="http://www.w3.org/2000/svg">
<g clip-path="url(#clip0)">
<path d="M20.3906 7.00377C19.8984 6.72914 19.2656 6.72914 18.7031 7.00377L14.7656 9.26944L12.0937 10.7112L8.22656 12.9769C7.73437 13.2515 7.10156 13.2515 6.53906 12.9769L3.51562 11.1918C3.02344 10.9172 2.67187 10.3679 2.67187 9.75004V6.3172C2.67187 5.76795 2.95312 5.2187 3.51562 4.87541L6.53906 3.15899C7.03125 2.88437 7.66406 2.88437 8.22656 3.15899L11.25 4.94407C11.7422 5.2187 12.0937 5.76795 12.0937 6.38586V8.65153L14.7656 7.14108V4.80676C14.7656 4.2575 14.4844 3.70825 13.9219 3.36496L8.29687 0.138099C7.80469 -0.136528 7.17187 -0.136528 6.60937 0.138099L0.84375 3.43362C0.28125 3.70825 0 4.2575 0 4.80676V11.2605C0 11.8097 0.28125 12.359 0.84375 12.7023L6.53906 15.9291C7.03125 16.2038 7.66406 16.2038 8.22656 15.9291L12.0937 13.7321L14.7656 12.2217L18.6328 10.0247C19.125 9.75004 19.7578 9.75004 20.3203 10.0247L23.3437 11.7411C23.8359 12.0157 24.1875 12.565 24.1875 13.1829V16.6157C24.1875 17.165 23.9062 17.7142 23.3437 18.0575L20.3906 19.7739C19.8984 20.0485 19.2656 20.0485 18.7031 19.7739L15.6797 18.0575C15.1875 17.7829 14.8359 17.2336 14.8359 16.6157V14.4187L12.1641 15.9291V18.1948C12.1641 18.7441 12.4453 19.2933 13.0078 19.6366L18.7031 22.8635C19.1953 23.1381 19.8281 23.1381 20.3906 22.8635L26.0859 19.6366C26.5781 19.362 26.9297 18.8127 26.9297 18.1948V11.6724C26.9297 11.1232 26.6484 10.5739 26.0859 10.2306L20.3906 7.00377Z" fill="#8247E5"/>
</g>
<defs>
<clipPath id="clip0">
<rect width="27" height="23" fill="white"/>
</clipPath>
</defs>
</svg>
