<svg width="14" height="28" viewBox="0 0 14 28" fill="none" xmlns="http://www.w3.org/2000/svg">
<path d="M4.81238 25.1944C4.81238 26.4507 5.79176 27.4691 6.99986 27.4691C8.20797 27.4691 9.18735 26.4508 9.18735 25.1944C9.07255 22.178 4.92762 22.1772 4.81238 25.1944Z" fill="#D0CBD0"/>
<path d="M10.9172 14.3042C9.56001 15.2583 8.74985 16.8125 8.74985 18.4615C8.74985 19.4665 7.96647 20.2812 6.99995 20.2812C6.03343 20.2812 5.24996 19.4665 5.24996 18.4615C5.24996 15.6025 6.63569 12.9212 8.95679 11.2893C11.7338 9.33036 10.5105 4.82731 7.16751 4.63578C6.19819 4.58883 5.28103 4.9455 4.58313 5.63862C3.88462 6.33239 3.49997 7.26727 3.49997 8.27111C3.4081 10.6844 0.0920493 10.6848 0 8.27111C0 6.26333 0.769209 4.39376 2.16587 3.00669C3.56193 1.62025 5.39574 0.908195 7.32833 1.00009C9.06598 1.08325 10.7058 1.83907 11.9457 3.12833C13.1855 4.4176 13.9124 6.12276 13.9924 7.92964C14.1054 10.4878 12.9559 12.8708 10.9172 14.3042Z" fill="#D0CBD0"/>
</svg>
