<svg width="25" height="20" viewBox="0 0 25 20" fill="none" xmlns="http://www.w3.org/2000/svg">
<path d="M24.544 16.1234V12.5352C23.7427 12.9418 22.9054 13.2887 22.0322 13.5518C19.353 14.3652 15.8485 14.8077 12.1525 14.8077C8.87526 14.8077 5.6817 14.4369 3.16991 13.7791C2.14128 13.516 1.14852 13.1571 0.19165 12.6907L0.251455 16.1593C0.251455 16.1713 0.251455 16.1713 0.251455 16.1832C0.251455 16.3626 0.777734 17.164 3.30148 17.9415C5.69366 18.6711 8.92311 19.0778 12.3798 19.0778C15.8245 19.0778 19.0659 18.6591 21.482 17.9056C24.0058 17.1162 24.556 16.2909 24.556 16.1234H24.544Z" fill="url(#paint0_linear)"/>
<path d="M21.9485 6.93757C19.2812 7.72699 15.8126 8.15759 12.1765 8.15759C8.64799 8.15759 5.28697 7.75092 2.69146 6.99738C1.79439 6.7462 0.921247 6.4113 0.0839844 5.99266L0.131827 8.74367L0.143789 9.74839C1.07674 10.9086 5.53815 12.4037 12.1645 12.4037C15.6212 12.4037 18.8865 11.997 21.3385 11.2555C23.922 10.466 24.4842 9.6527 24.4842 9.48524C24.4842 9.35367 24.556 9.21014 24.556 9.09054H24.5679V5.9209C23.7307 6.33953 22.8575 6.69836 21.9485 6.93757Z" fill="url(#paint1_linear)"/>
<path opacity="0.4" d="M21.3861 1.13629C18.9461 0.39471 15.597 0 12.1762 0H11.9729C8.79126 0 5.76515 0.358827 3.44474 1.01668C0.968835 1.71041 0.11961 2.49983 0.0119616 2.82277C7.29857e-07 2.84669 0 2.85865 0 2.87062C0 2.87062 1.45971e-06 2.87062 0.0239233 2.91846C0.0956886 3.16964 0.801382 3.98298 3.37297 4.73652C5.75319 5.41829 8.88695 5.80103 12.1882 5.80103C15.597 5.80103 18.8265 5.40633 21.2784 4.67671C23.9338 3.88729 24.5318 3.06199 24.5438 2.88258V2.87062C24.5318 2.6912 23.9338 1.90178 21.3861 1.13629Z" fill="url(#paint2_linear)"/>
<defs>
<linearGradient id="paint0_linear" x1="1.20683" y1="13.8437" x2="22.5648" y2="24.8904" gradientUnits="userSpaceOnUse">
<stop stop-color="#19FADD"/>
<stop offset="1" stop-color="#68E4FF"/>
</linearGradient>
<linearGradient id="paint1_linear" x1="1.10415" y1="7.21746" x2="22.4384" y2="18.4083" gradientUnits="userSpaceOnUse">
<stop stop-color="#19FADD"/>
<stop offset="1" stop-color="#68E4FF"/>
</linearGradient>
<linearGradient id="paint2_linear" x1="1.02266" y1="1.16021" x2="21.2937" y2="13.0721" gradientUnits="userSpaceOnUse">
<stop stop-color="#19FADD"/>
<stop offset="1" stop-color="#68E4FF"/>
</linearGradient>
</defs>
</svg>
