<svg width="26" height="22" viewBox="0 0 26 22" fill="none" xmlns="http://www.w3.org/2000/svg">
<path d="M1.73242 17.0976V21.2396C1.73242 21.4916 1.93716 21.7015 2.19439 21.7015H5.39664C5.64862 21.7015 5.85861 21.4968 5.85861 21.2396V13.9531L3.53304 16.2787C3.03957 16.7669 2.40962 17.0504 1.73242 17.0976Z" fill="url(#paint0_linear)"/>
<path d="M7.45435 13.9004V21.2393C7.45435 21.4913 7.65908 21.7013 7.91631 21.7013H11.1186C11.3705 21.7013 11.5805 21.4966 11.5805 21.2393V16.9189C10.8508 16.9032 10.1684 16.6144 9.65393 16.1L7.45435 13.9004Z" fill="url(#paint1_linear)"/>
<path d="M13.1765 16.4627V21.2399C13.1765 21.4918 13.3812 21.7018 13.6385 21.7018H16.8407C17.0927 21.7018 17.3027 21.4971 17.3027 21.2399V12.4258L13.6332 16.0953C13.4915 16.237 13.3393 16.3577 13.1765 16.4627Z" fill="url(#paint2_linear)"/>
<path d="M22.7151 7.00781L18.8987 10.8243V21.2395C18.8987 21.4915 19.1034 21.7014 19.3606 21.7014H22.5629C22.8149 21.7014 23.0249 21.4967 23.0249 21.2395V7.29654C22.9199 7.2073 22.8411 7.12855 22.7834 7.07606L22.7151 7.00781Z" fill="url(#paint3_linear)"/>
<path opacity="0.4" d="M25.3346 0.246731C25.1823 0.0839935 24.9514 0 24.6574 0C24.6311 0 24.5996 0 24.5734 0C23.0825 0.0682448 21.5969 0.141739 20.106 0.209984C19.9065 0.220483 19.6335 0.230982 19.4183 0.446216C19.35 0.514461 19.2975 0.593205 19.2555 0.687698C19.0351 1.16541 19.3448 1.47514 19.4918 1.62213L19.8645 2.0001C20.1217 2.26258 20.3842 2.52506 20.6467 2.78229L11.6384 11.7959L7.59092 7.74841C7.34944 7.50693 7.02397 7.37044 6.67749 7.37044C6.33102 7.37044 6.01079 7.50693 5.76931 7.74841L0.377971 13.1345C-0.12599 13.6385 -0.12599 14.4522 0.377971 14.9561L0.619453 15.1976C0.860935 15.4391 1.18641 15.5756 1.53288 15.5756C1.87936 15.5756 2.19958 15.4391 2.44106 15.1976L6.67749 10.9612L10.7249 15.0086C10.9664 15.2501 11.2919 15.3866 11.6384 15.3866C11.9848 15.3866 12.3051 15.2501 12.5518 15.0086L22.715 4.84538L23.8647 5.98979C24.0012 6.12628 24.1902 6.31527 24.4789 6.31527C24.5996 6.31527 24.7204 6.28377 24.8464 6.21553C24.9304 6.16828 25.0038 6.11579 25.0668 6.05279C25.2926 5.82706 25.3346 5.53833 25.3451 5.3126C25.3871 4.34667 25.4343 3.38074 25.4816 2.40957L25.5498 0.955427C25.5656 0.65095 25.4973 0.414718 25.3346 0.246731Z" fill="url(#paint4_linear)"/>
<defs>
<linearGradient id="paint0_linear" x1="1.90435" y1="15.5028" x2="6.46405" y2="15.84" gradientUnits="userSpaceOnUse">
<stop stop-color="#19FADD"/>
<stop offset="1" stop-color="#68E4FF"/>
</linearGradient>
<linearGradient id="paint1_linear" x1="7.62627" y1="15.4606" x2="12.1863" y2="15.7956" gradientUnits="userSpaceOnUse">
<stop stop-color="#19FADD"/>
<stop offset="1" stop-color="#68E4FF"/>
</linearGradient>
<linearGradient id="paint2_linear" x1="13.3484" y1="14.281" x2="17.9157" y2="14.5632" gradientUnits="userSpaceOnUse">
<stop stop-color="#19FADD"/>
<stop offset="1" stop-color="#68E4FF"/>
</linearGradient>
<linearGradient id="paint3_linear" x1="19.0706" y1="9.94654" x2="23.6483" y2="10.1251" gradientUnits="userSpaceOnUse">
<stop stop-color="#19FADD"/>
<stop offset="1" stop-color="#68E4FF"/>
</linearGradient>
<linearGradient id="paint4_linear" x1="1.06467" y1="3.11512" x2="28.0546" y2="9.26477" gradientUnits="userSpaceOnUse">
<stop stop-color="#19FADD"/>
<stop offset="1" stop-color="#68E4FF"/>
</linearGradient>
</defs>
</svg>
