<svg width="46" height="46" viewBox="0 0 46 46" fill="none" xmlns="http://www.w3.org/2000/svg">
<path d="M31.9336 19.3296L23.0001 10.396L14.0623 19.3335L8.86428 14.1355L23.0001 0L37.1312 14.1312L31.9334 19.3292L31.9336 19.3296ZM46 23L40.8018 17.8011L35.604 22.9989L40.8022 28.1971L46 23ZM31.9336 26.671L23.0001 35.6041L14.0625 26.6668L8.86171 31.862L8.86428 31.8648L23.0001 46.0001L37.1312 31.8689L37.1386 31.8615L31.933 26.6705L31.9336 26.671ZM10.3961 23.0022L5.19791 17.8041L0.000102997 23.0019L5.19809 28.2001L10.3961 23.0022Z" fill="#F3BA2F"/>
<path d="M17.7291 22.9982H17.7269L23.001 17.7236L26.8994 21.6209L27.3473 22.069L28.271 22.9928L28.2783 23L28.271 23.0076L23.001 28.2783L17.7265 23.0037L17.7239 23.0008L17.7287 22.9982" fill="#F3BA2F"/>
</svg>
