<svg width="46" height="46" viewBox="0 0 46 46" fill="none" xmlns="http://www.w3.org/2000/svg">
<path d="M23.0172 35.0688L10.251 28.8359L23.0056 45.9996L24.9218 43.4208V34.136L23.0172 35.0688Z" fill="#708299"/>
<path d="M23.0049 0L8.35547 26.286H37.6547L23.0049 0Z" fill="#708299"/>
<path d="M37.6556 26.3249L23.0059 0V26.3249H37.6556Z" fill="#68788E"/>
<path d="M18.5723 14.5996H21.4473V17.4746H18.5723V14.5996Z" fill="white"/>
<path d="M23.0035 19.1485L22.9459 19.1211L8.35547 26.3086H8.36845L22.9589 33.4961L23.0165 33.4687L24.9197 32.5373V20.0869L23.0035 19.1485Z" fill="#3C3C47"/>
<path d="M18.5723 9.16113H21.4473V12.0361H18.5723V9.16113Z" fill="white"/>
<path d="M23.0174 35.0687L23.0059 45.9995L35.7696 28.8242L23.0174 35.0687Z" fill="#68788E"/>
<path d="M37.6282 26.3086L23.0058 19.1485L22.9482 19.1211L22.9612 33.4961L23.0188 33.4687L37.6412 26.3086H37.6282Z" fill="#31313B"/>
</svg>
