<svg width="46" height="42" viewBox="0 0 46 42" fill="none" xmlns="http://www.w3.org/2000/svg">
<path d="M34.6873 12.6355C33.85 12.1448 32.7735 12.1448 31.8166 12.6355L25.1184 16.6837L20.5732 19.2599L13.9945 23.3081C13.1572 23.7988 12.0807 23.7988 11.1239 23.3081L5.98057 20.1186C5.14329 19.6279 4.54523 18.6465 4.54523 17.5424V11.4087C4.54523 10.4273 5.02368 9.44593 5.98057 8.83256L11.1239 5.7657C11.9611 5.275 13.0376 5.275 13.9945 5.7657L19.1378 8.95523C19.9751 9.44593 20.5732 10.4273 20.5732 11.5314V15.5797L25.1184 12.8808V8.70989C25.1184 7.72849 24.6399 6.74709 23.683 6.13372L14.1141 0.368023C13.2769 -0.122674 12.2004 -0.122674 11.2435 0.368023L1.43534 6.2564C0.478445 6.74709 0 7.72849 0 8.70989V20.2413C0 21.2227 0.478445 22.2041 1.43534 22.8174L11.1239 28.5831C11.9611 29.0738 13.0376 29.0738 13.9945 28.5831L20.5732 24.6576L25.1184 21.9587L31.697 18.0331C32.5343 17.5424 33.6108 17.5424 34.5677 18.0331L39.711 21.1C40.5482 21.5907 41.1463 22.5721 41.1463 23.6762V29.8099C41.1463 30.7913 40.6679 31.7727 39.711 32.3861L34.6873 35.4529C33.85 35.9436 32.7735 35.9436 31.8166 35.4529L26.6733 32.3861C25.836 31.8954 25.238 30.914 25.238 29.8099V25.8843L20.6928 28.5831V32.6314C20.6928 33.6128 21.1712 34.5942 22.1281 35.2076L31.8166 40.9733C32.6539 41.464 33.7304 41.464 34.6873 40.9733L44.3758 35.2076C45.2131 34.7169 45.8111 33.7355 45.8111 32.6314V20.9773C45.8111 19.9959 45.3327 19.0145 44.3758 18.4012L34.6873 12.6355Z" fill="#8247E5"/>
</svg>
